<?xml version="1.0" encoding="utf-8"?>
<!-- Svg Vector Icons : http://www.onlinewebfonts.com/icon -->
<!DOCTYPE svg PUBLIC "-//W3C//DTD SVG 1.1//EN" "http://www.w3.org/Graphics/SVG/1.1/DTD/svg11.dtd">
<svg version="1.1" xmlns="http://www.w3.org/2000/svg" xmlns:xlink="http://www.w3.org/1999/xlink" x="0px" y="0px" viewBox="0 0 1000 1000" enable-background="new 0 0 1000 1000" xml:space="preserve">
<metadata> Svg Vector Icons : http://www.onlinewebfonts.com/icon </metadata>
<g><path d="M709.2,325L423.4,610.9L290.7,478.1c-11.7-11.7-30.6-11.7-42.3,0c-11.7,11.6-11.7,30.6,0,42.3l150.3,150.2c1,1.4,1.6,3.1,2.8,4.4c6.1,6,14,8.8,21.9,8.6c7.9,0.2,15.9-2.6,21.9-8.6c1.3-1.3,1.9-2.9,2.9-4.4l303.3-303.4c11.7-11.6,11.7-30.6,0-42.3C739.9,313.3,721,313.3,709.2,325z"/><path d="M500,10C229.4,10,10,229.4,10,500c0,270.6,219.4,490,490,490c270.6,0,490-219.4,490-490C990,229.4,770.6,10,500,10z M500,928.7C263.2,928.7,71.3,736.8,71.3,500C71.3,263.2,263.2,71.2,500,71.2c236.8,0,428.8,191.9,428.8,428.7C928.8,736.8,736.8,928.7,500,928.7z"/></g>
</svg>